# xmcd CD database file
#
# Track frame offsets:
#	150
#	25526
#	55269
#	83751
#	109047
#	141982
#	168301
#	196187
#	215051
#	240308
#	266972
#	296147
#
# Disc length: 3973 seconds
#
# Revision: 0
# Processed by: cddbd v1.4PL0 Copyright (c) Steve Scherf et al.
# Submitted via: CDex 1.50beta9
#
DISCID=ac0f830c
DTITLE=Bobby Sharp Trio - Espresso Bob
DYEAR=2002
DGENRE=Jazz
TTITLE0=Our Love is Here to Stay
TTITLE1=Dindi
TTITLE2=Autumn Leaves
TTITLE3=Who Can I Turn To?
TTITLE4=Canadian Sunset
TTITLE5=Out of Nowhere
TTITLE6=Triste
TTITLE7=Tangerine
TTITLE8=Tres Palabras
TTITLE9=Love Letters
TTITLE10=Once I Loved
TTITLE11=Cheek to Cheek
EXTD=YEAR: 2002
EXTT0=
EXTT1=
EXTT2=
EXTT3=
EXTT4=
EXTT5=
EXTT6=
EXTT7=
EXTT8=
EXTT9=
EXTT10=
EXTT11=
PLAYORDER=
